PathFileType	4	(X/Y/Z)	5_coords_data.trc
DataRate	CameraRate	NumFrames	NumMarkers	Units	OrigDataRate	OrigDataStartFrame	OrigNumFrames
30.0	30.0	8	21	m	30.0	20	77
Frame#	Time	THUMB_TIP	THUMB_IP	THUMB_MCP	THUMB_CMC	INDEX_TIP	INDEX_DIP	INDEX_PIP	INDEX_MCP	MIDDLE_TIP	MIDDLE_DIP	MIDDLE_PIP	MIDDLE_MCP	RING_TIP	RING_DIP	RING_PIP	RING_MCP	PINKY_TIP	PINKY_DIP	PINKY_PIP	PINKY_MCP	WRIST
X1	Y1	Z1	X2	Y2	Z2	X3	Y3	Z3	X4	Y4	Z4	X5	Y5	Z5	X6	Y6	Z6	X7	Y7	Z7	X8	Y8	Z8	X9	Y9	Z9	X10	Y10	Z10	X11	Y11	Z11	X12	Y12	Z12	X13	Y13	Z13	X14	Y14	Z14	X15	Y15	Z15	X16	Y16	Z16	X17	Y17	Z17	X18	Y18	Z18	X19	Y19	Z19	X20	Y20	Z20	X21	Y21	Z21
19	0.6333333333333333	-0.015331299781799316	-0.055276798248291015	0.9898679809570312	-0.011001500129699707	-0.07671379852294923	0.9965349731445312	-0.024591100692749022	-0.08559989929199219	1.0209600219726562	-0.03317279815673828	-0.05762599945068359	1.032510009765625	-0.02050979995727539	-0.05997140121459961	1.02072998046875	-0.022956899642944336	-0.06929730224609375	1.0033900146484376	-0.02545210075378418	-0.0784281005859375	0.983416015625	-0.06512670135498047	-0.07884110260009766	0.9881500244140625	-0.027061800003051757	-0.05362689971923828	1.0140399780273437	-0.023878999710083008	-0.053214401245117185	1.0041799926757813	-0.02504319953918457	-0.059793701171875	0.9776929931640626	-0.0673594970703125	-0.06007500076293945	0.9821500244140625	-0.030446199417114257	-0.036005298614501954	1.0251199951171874	-0.024606800079345702	-0.03910660171508789	1.0057000122070312	-0.022878999710083007	-0.041816799163818356	0.9805180053710938	-0.06362730026245117	-0.04160720062255859	0.9811129760742188	-0.034490798950195314	-0.02493370056152344	1.0160700073242188	-0.02346229934692383	-0.026057899475097655	1.0069400024414064	-0.022675500869750977	-0.02618950080871582	0.98864599609375	-0.051760501861572265	-0.024048099517822264	0.9836019897460937	-0.05211520004272461	-0.02923699951171875	1.0481099853515625
20	0.6666666666666666	-0.015337300300598145	-0.05536880111694336	0.9899860229492188	-0.011160499572753906	-0.07685829925537109	0.9968779907226563	-0.024711999893188476	-0.08550769805908204	1.0215	-0.03324869918823242	-0.05756010055541992	1.0330699462890625	-0.020886899948120118	-0.06100740051269531	1.0206599731445312	-0.02292449951171875	-0.06929900360107422	1.0038900146484375	-0.025553199768066408	-0.07845939636230469	0.9837769775390625	-0.06526719665527343	-0.07881089782714844	0.9885189819335938	-0.027149099349975586	-0.05362950134277344	1.0146699829101562	-0.023920700073242186	-0.0533286018371582	1.0046199951171875	-0.025121400833129883	-0.059824501037597656	0.978093017578125	-0.06739769744873046	-0.060046798706054685	0.9826119995117187	-0.03208330154418945	-0.0383911018371582	1.0186300048828125	-0.02468160057067871	-0.039168201446533206	1.0060999755859374	-0.022866100311279298	-0.041833301544189454	0.9809710083007812	-0.06363570022583008	-0.04156589889526367	0.9815419921875	-0.03469210052490234	-0.024952400207519532	1.0164400024414062	-0.023515499114990235	-0.025910100936889648	1.0078099975585937	-0.02269809913635254	-0.026212099075317383	0.9890989990234375	-0.051789798736572266	-0.024028799057006837	0.984114013671875	-0.052132701873779295	-0.029145700454711914	1.0486600341796875
21	0.7	-0.015429200172424317	-0.05528049850463867	0.9911710205078125	-0.011214300155639649	-0.076864501953125	0.997218994140625	-0.024770700454711914	-0.08560880279541015	1.021780029296875	-0.03336569976806641	-0.057571701049804684	1.033530029296875	-0.020832799911499025	-0.06109529876708984	1.020989990234375	-0.023040000915527343	-0.06928500366210938	1.004260009765625	-0.025542999267578127	-0.07837359619140626	0.9844290161132813	-0.06520919799804688	-0.07872360229492187	0.989125	-0.02729759979248047	-0.05354930114746094	1.0145800170898438	-0.024024200439453126	-0.05321659851074219	1.0051199951171874	-0.025112899780273437	-0.05973949813842774	0.9786530151367188	-0.06743620300292968	-0.05994329833984375	0.9831380004882813	-0.03256119918823242	-0.038452400207519534	1.0187000122070313	-0.02500349998474121	-0.039089298248291014	1.006489990234375	-0.02288640022277832	-0.04175320053100586	0.9814550170898437	-0.06363010025024414	-0.0415015983581543	0.9820440063476562	-0.034859600067138674	-0.024875999450683594	1.01652001953125	-0.023669700622558593	-0.02594309997558594	1.007760009765625	-0.022681600570678712	-0.026136199951171876	0.9895540161132812	-0.05175199890136719	-0.02396579933166504	0.9845	-0.05211119842529297	-0.02912030029296875	1.0490899658203126
22	0.7333333333333333	-0.015421099662780761	-0.05508710098266602	0.9914619750976562	-0.011200900077819825	-0.07669020080566406	0.9977780151367187	-0.024753400802612305	-0.08552729797363282	1.0221300048828126	-0.0334098014831543	-0.05742050170898438	1.033969970703125	-0.021204399108886718	-0.060632701873779296	1.0215999755859375	-0.022975900650024413	-0.06906349945068359	1.004719970703125	-0.025593399047851562	-0.07821640014648437	0.984823974609375	-0.06523400115966797	-0.07855390167236329	0.989426025390625	-0.027351900100708006	-0.053621101379394534	1.0152999877929687	-0.02395319938659668	-0.053057098388671876	1.0055800170898437	-0.025083799362182618	-0.05958089828491211	0.9790579833984375	-0.06746260070800782	-0.05977149963378906	0.9835499877929688	-0.030106800079345703	-0.03606280136108399	1.0273499755859374	-0.024754400253295897	-0.038886199951171874	1.0071799926757812	-0.022851999282836915	-0.04161100006103516	0.9819559936523438	-0.06366699981689453	-0.041311901092529295	0.9824639892578125	-0.03468870162963867	-0.02457710075378418	1.017780029296875	-0.02355069923400879	-0.025738199234008788	1.0083300170898437	-0.022632699966430664	-0.02593440055847168	0.9901640014648437	-0.051732398986816405	-0.023749399185180663	0.984989013671875	-0.052311798095703126	-0.02885110092163086	1.0495699462890624
23	0.7666666666666667	-0.015288399696350099	-0.05498469924926758	0.9917479858398438	-0.011187399864196777	-0.07662470245361327	0.9980609741210937	-0.02476930046081543	-0.08539459991455078	1.0225599975585937	-0.033357498168945315	-0.05731949996948242	1.034449951171875	-0.021156200408935545	-0.061180099487304684	1.0219199829101562	-0.02302560043334961	-0.0689198989868164	1.00527001953125	-0.02551919937133789	-0.0780604019165039	0.9852540283203125	-0.06537110137939453	-0.07836190032958984	0.9899990234375	-0.026825599670410157	-0.05277560043334961	1.0156300048828124	-0.024002199172973634	-0.052958599090576174	1.0059600219726563	-0.025071100234985353	-0.059425899505615234	0.9793779907226563	-0.06740950012207031	-0.05950970077514649	0.983916015625	-0.03232600021362304	-0.0382672004699707	1.0190999755859376	-0.024847400665283202	-0.03890629959106445	1.0076099853515625	-0.022800300598144533	-0.04142679977416992	0.9824459838867188	-0.06356529998779296	-0.041043498992919925	0.9828690185546874	-0.035224300384521484	-0.024999000549316405	1.0171699829101561	-0.023615400314331056	-0.025587900161743164	1.0088599853515625	-0.02258620071411133	-0.025802799224853516	0.99047900390625	-0.0516708984375	-0.0236112003326416	0.9853829956054687	-0.05246649932861328	-0.028666500091552735	1.0501099853515625
24	0.8	-0.015246299743652344	-0.05496360015869141	0.9924569702148438	-0.011142399787902832	-0.07644560241699219	0.9987139892578125	-0.024691200256347655	-0.08523670196533203	1.0230800170898438	-0.03323350143432617	-0.05731389999389649	1.0348599853515625	-0.02087820053100586	-0.06043949890136719	1.022969970703125	-0.022892900466918945	-0.06890769958496094	1.0056300048828124	-0.025425500869750976	-0.07799440002441406	0.9857589721679687	-0.06524500274658203	-0.07820069885253907	0.9902349853515625	-0.026692899703979492	-0.0531885986328125	1.0164500122070312	-0.023907800674438477	-0.0529197998046875	1.0065499877929687	-0.0249109001159668	-0.059338001251220705	0.9799840087890626	-0.06724579620361328	-0.0593750991821289	0.9843690185546875	-0.02985219955444336	-0.035823001861572265	1.0273499755859374	-0.024822700500488282	-0.038801101684570315	1.0080700073242188	-0.022654399871826172	-0.04131529998779297	0.98297998046875	-0.06341749954223633	-0.040947799682617185	0.9833909912109375	-0.03475659942626953	-0.024801000595092774	1.0176199951171876	-0.023395000457763673	-0.025564599990844726	1.0094299926757813	-0.02242959976196289	-0.025706100463867187	0.9910130004882812	-0.0515432014465332	-0.023468000411987305	0.9859660034179687	-0.05202289962768555	-0.028793100357055665	1.050510009765625
25	0.8333333333333334	-0.014948100090026855	-0.05499829864501953	0.9925900268554687	-0.01084850025177002	-0.07630500030517579	0.999625	-0.024381399154663086	-0.08519599914550781	1.0235800170898437	-0.03310910034179688	-0.0573401985168457	1.0354599609375	-0.02107390022277832	-0.061625499725341794	1.02327001953125	-0.022815799713134764	-0.06903900146484375	1.0060900268554687	-0.025234800338745117	-0.07800379943847656	0.9863150024414062	-0.06486370086669922	-0.07821869659423829	0.9909290161132812	-0.026566299438476562	-0.05281399917602539	1.017219970703125	-0.023559099197387696	-0.052858699798583986	1.0070900268554688	-0.024697599411010743	-0.05934299850463867	0.9805399780273437	-0.06688990020751953	-0.059331100463867185	0.9846939697265625	-0.030078699111938476	-0.03605139923095703	1.0289000244140625	-0.0244591007232666	-0.03864670181274414	1.0089500122070312	-0.022354099273681642	-0.041266300201416015	0.9836400146484375	-0.06312699890136719	-0.040945301055908205	0.983948974609375	-0.034388500213623045	-0.024433500289916994	1.0187100219726561	-0.023325899124145507	-0.025397600173950194	1.0101900024414063	-0.02215690040588379	-0.025643400192260742	0.9917760009765625	-0.05126850128173828	-0.02340250015258789	0.9865640258789062	-0.05207989883422852	-0.02871689987182617	1.0510999755859376
26	0.8666666666666667	-0.01486079978942871	-0.05473740005493164	0.9934929809570312	-0.010564800262451171	-0.07628260040283204	1.0001500244140624	-0.02429770088195801	-0.08514140319824219	1.024260009765625	-0.032876201629638675	-0.057278499603271485	1.0361099853515625	-0.02001390075683594	-0.05991080093383789	1.0239000244140626	-0.02247249984741211	-0.06897229766845703	1.0068900146484374	-0.02500480079650879	-0.07796330261230469	0.98697998046875	-0.064731201171875	-0.0781406021118164	0.9914359741210937	-0.026567699432373047	-0.05301839828491211	1.0176300048828124	-0.023315799713134765	-0.052843700408935546	1.0077100219726562	-0.02439080047607422	-0.05926779937744141	0.9812750244140624	-0.06660489654541016	-0.059169498443603516	0.9852440185546875	-0.02915839958190918	-0.0354182014465332	1.0286500244140624	-0.02424300003051758	-0.038654598236083984	1.0093400268554686	-0.02206760025024414	-0.04123429870605469	0.9842769775390625	-0.06284870147705078	-0.040803600311279296	0.9845120239257813	-0.03429660034179687	-0.024197200775146484	1.0196400146484375	-0.02305900001525879	-0.025279499053955077	1.0110399780273438	-0.021934999465942382	-0.02561079978942871	0.9922849731445312	-0.05090079879760742	-0.023345600128173827	0.9871300048828126	-0.05172359848022461	-0.02873240089416504	1.0517900390625
